<svg width="64" height="64" viewBox="0 0 64 64" fill="none" xmlns="http://www.w3.org/2000/svg">
<path fill-rule="evenodd" clip-rule="evenodd" d="M9.98165 7.11121L14.8991 36C23.4128 31.1796 26.6972 31.0924 38.7523 34.4616C50.4954 37.7437 54.7546 37.7277 64 31.1796V1.64116C54.774 6.37604 48.1468 8.54368 36.4037 4.9232C24.8711 1.36764 18.133 0.548609 9.98165 7.11121Z" fill="#333333"/>
<path d="M14.048 63.4598C12.1196 63.7592 10.3088 62.4524 9.98544 60.5278L0.598034 4.65354C0.268957 2.69486 1.60406 0.844953 3.56667 0.540217V0.540217C5.49513 0.240785 7.30589 1.54763 7.62924 3.47223L17.0166 59.3465C17.3457 61.3051 16.0106 63.155 14.048 63.4598V63.4598Z" fill="#333333"/>
</svg>
