<svg width="238" height="211" viewBox="0 0 238 211" fill="none" xmlns="http://www.w3.org/2000/svg">
<path d="M47 189V166H199V189H47Z" fill="white" stroke="white"/>
<path d="M165 102L199 149L165 148.753V102Z" fill="white" stroke="white"/>
<path d="M161 102L127 149L161 148.753V102Z" fill="white" stroke="white"/>
<path d="M125 145L159 98L125 98.2474V145Z" fill="white" stroke="white"/>
<path d="M125 47L160 94L125 94.5V47Z" fill="white" stroke="white"/>
<path d="M81 102L47 149L81 148.753V102Z" fill="white" stroke="white"/>
<path d="M85 102L119 149L85 148.753V102Z" fill="white" stroke="white"/>
<path d="M121 145L87 98L121 98.2474V145Z" fill="white" stroke="white"/>
<path d="M121 47L86 94L121 94.5V47Z" fill="white" stroke="white"/>
</svg>
