<svg width="64" height="64" viewBox="0 0 64 64" fill="none" xmlns="http://www.w3.org/2000/svg">
<path d="M43.4281 19.6129C41.5568 8.09032 37.143 0 32.0065 0C26.8699 0 22.4561 8.09032 20.5848 19.6129H43.4281ZM19.6169 32C19.6169 34.8645 19.7717 37.6129 20.0428 40.2581H43.9573C44.2283 37.6129 44.3831 34.8645 44.3831 32C44.3831 29.1355 44.2283 26.3871 43.9573 23.7419H20.0428C19.7717 26.3871 19.6169 29.1355 19.6169 32ZM61.5221 19.6129C57.831 10.8516 50.3585 4.07742 41.1309 1.34194C44.2799 5.70323 46.4481 12.271 47.5838 19.6129H61.5221ZM22.8691 1.34194C13.6544 4.07742 6.16899 10.8516 2.49082 19.6129H16.4291C17.5519 12.271 19.7201 5.70323 22.8691 1.34194V1.34194ZM62.903 23.7419H48.1C48.371 26.4516 48.5259 29.2258 48.5259 32C48.5259 34.7742 48.371 37.5484 48.1 40.2581H62.8901C63.5999 37.6129 64 34.8645 64 32C64 29.1355 63.5999 26.3871 62.903 23.7419ZM15.487 32C15.487 29.2258 15.6419 26.4516 15.9129 23.7419H1.1099C0.412987 26.3871 0 29.1355 0 32C0 34.8645 0.412987 37.6129 1.1099 40.2581H15.9C15.6419 37.5484 15.487 34.7742 15.487 32V32ZM20.5848 44.3871C22.4561 55.9097 26.8699 64 32.0065 64C37.143 64 41.5568 55.9097 43.4281 44.3871H20.5848ZM41.1438 62.6581C50.3585 59.9226 57.8439 53.1484 61.535 44.3871H47.5967C46.461 51.729 44.2928 58.2968 41.1438 62.6581ZM2.49082 44.3871C6.18189 53.1484 13.6544 59.9226 22.882 62.6581C19.733 58.2968 17.5648 51.729 16.4291 44.3871H2.49082V44.3871Z" fill="#333333"/>
</svg>
