<svg width="685" height="477" viewBox="0 0 685 477" fill="none" xmlns="http://www.w3.org/2000/svg">
<g clip-path="url(#clip0_92_74)">
<path d="M136.482 477C211.858 477 272.963 472.355 272.963 466.625C272.963 460.896 211.858 456.251 136.482 456.251C61.1049 456.251 0 460.896 0 466.625C0 472.355 61.1049 477 136.482 477Z" fill="#CCCCCC"/>
<path d="M104.324 105.838C128.076 95.7267 157.659 102.133 186.551 106.579C186.82 101.195 190.078 94.6418 186.665 90.8853C182.518 86.3215 182.899 81.5262 185.395 76.7034C191.777 64.3705 182.633 51.2478 173.402 40.3363C171.321 37.8825 168.691 35.9544 165.726 34.7088C162.761 33.4633 159.544 32.9352 156.337 33.1676L139.235 34.3902C135.074 34.6877 131.103 36.2501 127.853 38.8683C124.603 41.4865 122.229 45.0357 121.05 49.041C116.966 54.5993 114.781 60.1423 116.157 65.6564C110.041 69.8398 109.013 74.8896 111.761 80.5824C114.092 84.1667 114.067 87.6558 111.655 91.0483C108.488 95.3734 106.062 100.196 104.477 105.319L104.324 105.838Z" fill="#2F2E41"/>
<path d="M668.768 412.359H184.675C180.37 412.359 176.241 410.647 173.197 407.6C170.153 404.554 168.443 400.422 168.443 396.113C343.926 375.701 516.112 375.701 685 396.113C685 400.422 683.29 404.554 680.246 407.6C677.202 410.647 673.073 412.359 668.768 412.359Z" fill="#2F2E41"/>
<path d="M685 397.069L168.443 396.113L228.31 295.293L228.596 294.815V72.6191C228.596 69.9221 229.127 67.2515 230.158 64.7598C231.189 62.2681 232.7 60.004 234.606 58.097C236.511 56.1899 238.773 54.6772 241.263 53.6452C243.752 52.6132 246.421 52.0822 249.115 52.0824H601.463C604.158 52.0822 606.826 52.6132 609.315 53.6452C611.805 54.6772 614.067 56.1899 615.972 58.097C617.878 60.004 619.389 62.2681 620.42 64.7598C621.452 67.2515 621.982 69.9221 621.982 72.6191V296.344L685 397.069Z" fill="#3F3D56"/>
<path d="M248.647 66.417C246.875 66.419 245.177 67.1244 243.924 68.3785C242.671 69.6326 241.966 71.3329 241.964 73.1065V275.702C241.966 277.476 242.671 279.176 243.924 280.43C245.177 281.684 246.875 282.39 248.647 282.392H604.795C606.567 282.39 608.266 281.684 609.519 280.43C610.772 279.176 611.477 277.476 611.479 275.702V73.1065C611.477 71.3329 610.772 69.6327 609.519 68.3786C608.266 67.1245 606.567 66.4191 604.795 66.417H248.647Z" fill="white"/>
<path d="M250.14 309.15C249.592 309.151 249.056 309.308 248.595 309.604C248.134 309.899 247.767 310.321 247.537 310.818L229.09 350.955C228.89 351.392 228.802 351.872 228.835 352.352C228.868 352.832 229.022 353.295 229.281 353.7C229.54 354.105 229.896 354.438 230.318 354.669C230.739 354.899 231.212 355.02 231.692 355.02H619.622C620.11 355.02 620.59 354.895 621.017 354.657C621.443 354.419 621.802 354.076 622.058 353.661C622.315 353.245 622.461 352.77 622.483 352.282C622.505 351.794 622.402 351.308 622.183 350.871L602.132 310.734C601.895 310.257 601.53 309.856 601.078 309.576C600.625 309.296 600.103 309.148 599.571 309.15H250.14Z" fill="#2F2E41"/>
<path d="M425.289 63.0723C427.662 63.0723 429.586 61.1469 429.586 58.7719C429.586 56.3968 427.662 54.4715 425.289 54.4715C422.916 54.4715 420.992 56.3968 420.992 58.7719C420.992 61.1469 422.916 63.0723 425.289 63.0723Z" fill="white"/>
<path d="M387.159 362.666C386.529 362.666 385.917 362.874 385.417 363.258C384.918 363.641 384.558 364.178 384.393 364.787L379.766 381.988C379.652 382.413 379.636 382.859 379.722 383.291C379.807 383.722 379.991 384.128 380.258 384.478C380.525 384.827 380.87 385.11 381.264 385.305C381.658 385.5 382.092 385.601 382.532 385.601H470.531C470.988 385.601 471.438 385.492 471.844 385.282C472.25 385.073 472.6 384.769 472.864 384.397C473.129 384.024 473.301 383.594 473.366 383.142C473.431 382.689 473.387 382.228 473.237 381.796L467.288 364.595C467.093 364.031 466.728 363.543 466.243 363.197C465.757 362.852 465.177 362.666 464.581 362.666H387.159Z" fill="#2F2E41"/>
<path d="M621.982 291.47V295.293H228.31L228.606 294.815V291.47H621.982Z" fill="#2F2E41"/>
<path d="M611.001 133.79C647.915 133.79 677.839 103.84 677.839 66.8948C677.839 29.9498 647.915 0 611.001 0C574.088 0 544.164 29.9498 544.164 66.8948C544.164 103.84 574.088 133.79 611.001 133.79Z" fill="#008000"/>
<path d="M633 96.0419L588 96.0419C586.987 96.0409 586.016 95.6379 585.3 94.9212C584.584 94.2046 584.182 93.2329 584.181 92.2194V58.7719C584.182 57.7584 584.585 56.7868 585.301 56.0702C586.017 55.3535 586.987 54.9504 588 54.9494L633 54.9494C634.013 54.9504 634.983 55.3535 635.699 56.0702C636.415 56.7868 636.818 57.7584 636.819 58.7719V92.2193C636.818 93.2328 636.416 94.2046 635.7 94.9212C634.983 95.6379 634.013 96.0409 633 96.0419Z" fill="white"/>
<path d="M593.815 43.4817C593.815 32.4069 601.043 24.3688 611.001 24.3688C620.96 24.3688 628.188 32.4069 628.188 43.4817L628.188 52H622.37L622.37 43.4817C622.37 34.4791 616.87 30.19 611.002 30.19C605.13 30.19 599.63 34.4791 599.63 43.4817V52H593.815V43.4817Z" fill="white"/>
<path d="M564.343 213.673H289.099C287.748 213.672 286.453 213.134 285.497 212.177C284.541 211.221 284.004 209.924 284.002 208.572V140.237C284.004 138.884 284.541 137.588 285.497 136.631C286.453 135.675 287.748 135.137 289.099 135.135H564.343C565.695 135.137 566.99 135.675 567.946 136.631C568.901 137.588 569.439 138.884 569.44 140.237V208.572C569.439 209.924 568.901 211.221 567.946 212.177C566.99 213.134 565.695 213.672 564.343 213.673ZM289.099 137.176C288.289 137.177 287.511 137.5 286.938 138.073C286.365 138.647 286.042 139.425 286.041 140.237V208.572C286.042 209.383 286.365 210.161 286.938 210.735C287.511 211.309 288.289 211.632 289.099 211.633H564.343C565.154 211.632 565.931 211.309 566.505 210.735C567.078 210.161 567.401 209.383 567.401 208.572V140.237C567.401 139.425 567.078 138.647 566.505 138.073C565.931 137.5 565.154 137.177 564.343 137.176L289.099 137.176Z" fill="#E6E6E6"/>
<path d="M331.867 192.563C343.334 192.563 352.63 183.259 352.63 171.782C352.63 160.305 343.334 151.002 331.867 151.002C320.4 151.002 311.104 160.305 311.104 171.782C311.104 183.259 320.4 192.563 331.867 192.563Z" fill="#E6E6E6"/>
<path d="M379.819 157.929C379.364 157.928 378.914 158.017 378.493 158.191C378.073 158.364 377.691 158.619 377.369 158.941C377.047 159.263 376.791 159.645 376.617 160.065C376.443 160.486 376.353 160.937 376.353 161.392C376.353 161.847 376.443 162.298 376.617 162.719C376.791 163.139 377.047 163.521 377.369 163.843C377.691 164.165 378.073 164.42 378.493 164.593C378.914 164.767 379.364 164.856 379.819 164.855H542.956C543.874 164.855 544.754 164.491 545.403 163.841C546.052 163.192 546.416 162.311 546.416 161.392C546.416 160.473 546.052 159.593 545.403 158.943C544.754 158.293 543.874 157.929 542.956 157.929H379.819Z" fill="#E6E6E6"/>
<path d="M379.819 178.709C378.901 178.709 378.021 179.074 377.372 179.724C376.723 180.373 376.359 181.254 376.359 182.173C376.359 183.091 376.723 183.972 377.372 184.622C378.021 185.271 378.901 185.636 379.819 185.636H450.017C450.935 185.636 451.815 185.271 452.464 184.622C453.113 183.972 453.478 183.091 453.478 182.173C453.478 181.254 453.113 180.373 452.464 179.724C451.815 179.074 450.935 178.709 450.017 178.709H379.819Z" fill="#E6E6E6"/>
<path d="M227.632 180.11L176.751 207.184L176.107 184.623C192.715 181.848 208.515 177.017 223.124 169.152L228.445 155.993C229.025 154.56 229.968 153.301 231.18 152.342C232.393 151.383 233.834 150.756 235.361 150.522C236.889 150.289 238.451 150.457 239.895 151.01C241.338 151.563 242.613 152.483 243.594 153.678C245.029 155.427 245.746 157.656 245.601 159.915C245.455 162.173 244.457 164.292 242.809 165.841L227.632 180.11Z" fill="#FFB8B8"/>
<path d="M103.31 336.425C102.939 335.063 102.86 333.637 103.079 332.242C103.297 330.847 103.809 329.513 104.579 328.33L115.756 311.162C118.4 307.102 122.456 304.168 127.139 302.932C131.821 301.696 136.795 302.244 141.096 304.471C136.399 312.474 137.053 319.494 142.718 325.595C133.924 329.892 125.796 335.438 118.587 342.061C117.271 342.959 115.759 343.529 114.178 343.724C112.597 343.919 110.993 343.733 109.498 343.182C108.003 342.63 106.662 341.729 105.585 340.554C104.509 339.379 103.729 337.963 103.31 336.425Z" fill="#2F2E41"/>
<path d="M229.95 313.978C228.259 316.799 225.871 319.138 223.017 320.77C220.162 322.402 216.936 323.272 213.649 323.297L139.396 323.86L136.176 305.166L169.023 295.497L141.328 274.224L171.599 238.77L226.58 290.059C229.794 293.057 231.882 297.068 232.495 301.422C233.109 305.775 232.21 310.207 229.95 313.978Z" fill="#2F2E41"/>
<path d="M127.803 441.825H110.413C94.7997 334.709 78.9067 227.293 125.871 187.201L181.26 196.226L174.175 243.283L143.26 278.737L127.803 441.825Z" fill="#2F2E41"/>
<path d="M143.089 466.089C141.728 466.461 140.303 466.54 138.909 466.321C137.515 466.102 136.183 465.591 135.001 464.82L116.12 462.279C112.062 459.634 109.131 455.574 107.896 450.888C106.66 446.202 107.208 441.223 109.433 436.918C117.429 441.619 124.443 440.964 130.539 435.293C134.846 443.997 141.942 443.466 148.719 450.799C149.616 452.116 150.186 453.629 150.381 455.211C150.576 456.794 150.39 458.4 149.839 459.896C149.289 461.392 148.389 462.734 147.215 463.812C146.04 464.889 144.626 465.67 143.089 466.089Z" fill="#2F2E41"/>
<path d="M169.023 115.649L136.82 107.913C142.168 96.956 142.608 84.7639 140.04 71.8147L161.938 71.1701C162.624 87.2727 164.7 102.317 169.023 115.649Z" fill="#FFB8B8"/>
<path d="M177.873 215.635C154.431 231.623 137.867 216.182 125.227 192.358C126.983 177.78 124.139 160.335 118.872 141.379C116.529 133.018 117.404 124.082 121.323 116.335C125.242 108.588 131.92 102.593 140.04 99.5333L167.735 111.136C191.251 130.321 195.879 151.102 187.057 173.02L177.873 215.635Z" fill="#008000"/>
<path d="M110.413 131.764L84.6505 145.301L130.379 172.375L136.742 188.083C137.166 189.132 137.373 190.256 137.35 191.387C137.326 192.518 137.073 193.632 136.605 194.662C136.137 195.692 135.464 196.616 134.628 197.377C133.792 198.138 132.81 198.721 131.741 199.09C130.526 199.509 129.231 199.641 127.957 199.476C126.683 199.31 125.464 198.852 124.396 198.137C123.328 197.421 122.441 196.468 121.802 195.352C121.164 194.236 120.793 192.987 120.717 191.703L120.074 180.755L61.9537 161.559C59.9954 160.912 58.21 159.828 56.7324 158.388C55.2549 156.948 54.1241 155.191 53.4256 153.249C52.4075 150.419 52.3556 147.33 53.2782 144.467C54.2008 141.604 56.0457 139.127 58.5243 137.426L105.261 105.335L110.413 131.764Z" fill="#FFB8B8"/>
<path d="M136.176 134.343C125.431 129.63 115.661 134.749 103.328 138.855L101.396 104.69C113.642 98.1579 125.317 96.3967 136.176 101.467L136.176 134.343Z" fill="#008000"/>
<path d="M149.028 88.0931C160.384 88.0931 169.589 78.88 169.589 67.515C169.589 56.15 160.384 46.9368 149.028 46.9368C137.673 46.9368 128.468 56.15 128.468 67.515C128.468 78.88 137.673 88.0931 149.028 88.0931Z" fill="#FFB8B8"/>
<path d="M173.625 64.9185C153.269 66.914 137.757 63.5819 127.844 54.0943V46.4536H171.898L173.625 64.9185Z" fill="#2F2E41"/>
</g>
<defs>
<clipPath id="clip0_92_74">
<rect width="685" height="477" fill="white"/>
</clipPath>
</defs>
</svg>
