<svg width="50" height="50" viewBox="0 0 50 50" fill="none" xmlns="http://www.w3.org/2000/svg">
<path d="M22.7866 22.7869V13.388H27.4861V22.7869H36.885V27.4863H27.4861V36.8852H22.7866V27.4863H13.3877V22.7869H22.7866Z" fill="white"/>
<path d="M50 25C50 38.8071 38.8071 50 25 50C11.1929 50 0 38.8071 0 25C0 11.1929 11.1929 0 25 0C38.8071 0 50 11.1929 50 25ZM5.00889 25C5.00889 36.0408 13.9592 44.9911 25 44.9911C36.0408 44.9911 44.9911 36.0408 44.9911 25C44.9911 13.9592 36.0408 5.00889 25 5.00889C13.9592 5.00889 5.00889 13.9592 5.00889 25Z" fill="white"/>
</svg>
