<svg width="50" height="50" viewBox="0 0 50 50" fill="none" xmlns="http://www.w3.org/2000/svg">
<path d="M25.1348 21.8135L31.7808 15.1675L35.1038 18.4905L28.4578 25.1366L35.1038 31.7826L31.7808 35.1056L25.1348 28.4596L18.4887 35.1056L15.1657 31.7826L21.8118 25.1366L15.1657 18.4905L18.4887 15.1675L25.1348 21.8135Z" fill="white"/>
<path d="M50 25C50 38.8071 38.8071 50 25 50C11.1929 50 0 38.8071 0 25C0 11.1929 11.1929 0 25 0C38.8071 0 50 11.1929 50 25ZM5.00889 25C5.00889 36.0408 13.9592 44.9911 25 44.9911C36.0408 44.9911 44.9911 36.0408 44.9911 25C44.9911 13.9592 36.0408 5.00889 25 5.00889C13.9592 5.00889 5.00889 13.9592 5.00889 25Z" fill="white"/>
</svg>
