<svg width="44" height="44" viewBox="0 0 44 44" fill="none" xmlns="http://www.w3.org/2000/svg">
<path d="M44 22C44 34.1503 34.1503 44 22 44C9.84974 44 0 34.1503 0 22C0 9.84974 9.84974 0 22 0C34.1503 0 44 9.84974 44 22ZM4.40918 22C4.40918 31.7151 12.2849 39.5908 22 39.5908C31.7151 39.5908 39.5908 31.7151 39.5908 22C39.5908 12.2849 31.7151 4.40918 22 4.40918C12.2849 4.40918 4.40918 12.2849 4.40918 22Z" fill="#333333"/>
<path d="M17 22V18H25V30H28V34H17V30H20V22H17Z" fill="#333333"/>
<path d="M18.5 12.8672C18.5 10.8672 20 9.36719 22 9.36719C24 9.36719 25.5 10.8672 25.5 12.8672C25.5 14.8672 24 16.3672 22 16.3672C20 16.3672 18.5 14.8672 18.5 12.8672Z" fill="#333333"/>
</svg>
