<svg width="45" height="48" viewBox="0 0 45 48" fill="none" xmlns="http://www.w3.org/2000/svg">
<path d="M3 48C1.34315 48 0 46.6569 0 45V3C0 1.34315 1.34315 0 3 0H28C29.6569 0 31 1.34315 31 3V13C31 14.6569 29.6569 16 28 16C26.3431 16 25 14.6569 25 13V8C25 6.89543 24.1046 6 23 6H8C6.89543 6 6 6.89543 6 8V40C6 41.1046 6.89543 42 8 42H23C24.1046 42 25 41.1046 25 40V35C25 33.3431 26.3431 32 28 32C29.6569 32 31 33.3431 31 35V45C31 46.6569 29.6569 48 28 48H3Z" fill="#333333"/>
<path d="M18 26C16.6193 26 15.5 24.8807 15.5 23.5C15.5 22.1193 16.6193 21 18 21H36L33.8827 17.9753C33.083 16.8328 33.2189 15.2811 34.205 14.295C35.4249 13.0752 37.4371 13.1974 38.5003 14.556L43.9854 21.5646C44.8662 22.6902 44.8307 24.2808 43.9006 25.3659L38.4725 31.6987C37.4085 32.9401 35.5129 33.0129 34.3568 31.8568C33.3119 30.8119 33.2561 29.1359 34.2292 28.0238L36 26H18Z" fill="#333333"/>
</svg>
